<mxfile host="65bd71144e" modified="2020-10-21T05:58:36.909Z" agent="5.0 (Macintosh; Intel Mac OS X 10_15_6) AppleWebKit/537.36 (KHTML, like Gecko) Code/1.50.1 Chrome/83.0.4103.122 Electron/9.2.1 Safari/537.36" etag="X7iW6ueCWNEhggBZPSxD" version="13.6.5">
    <diagram id="fS4IjdomqKy9d6Vwx5TK" name="Page-1">
        <mxGraphModel dx="728" dy="436" grid="1" gridSize="10" guides="1" tooltips="1" connect="1" arrows="1" fold="1" page="1" pageScale="1" pageWidth="1169" pageHeight="827" math="0" shadow="0">
            <root>
                <mxCell id="0"/>
                <mxCell id="1" parent="0"/>
                <mxCell id="UgZbrdModhxfqhk1qCgU-34" value="users" style="swimlane;fontStyle=0;childLayout=stackLayout;horizontal=1;startSize=26;horizontalStack=0;resizeParent=1;resizeParentMax=0;resizeLast=0;collapsible=1;marginBottom=0;align=center;fontSize=14;" parent="1" vertex="1">
                    <mxGeometry x="10" y="20" width="160" height="266" as="geometry"/>
                </mxCell>
                <mxCell id="UgZbrdModhxfqhk1qCgU-35" value="nickname: string" style="text;strokeColor=none;fillColor=none;spacingLeft=4;spacingRight=4;overflow=hidden;rotatable=0;points=[[0,0.5],[1,0.5]];portConstraint=eastwest;fontSize=12;" parent="UgZbrdModhxfqhk1qCgU-34" vertex="1">
                    <mxGeometry y="26" width="160" height="30" as="geometry"/>
                </mxCell>
                <mxCell id="UgZbrdModhxfqhk1qCgU-36" value="email: string" style="text;strokeColor=none;fillColor=none;spacingLeft=4;spacingRight=4;overflow=hidden;rotatable=0;points=[[0,0.5],[1,0.5]];portConstraint=eastwest;fontSize=12;" parent="UgZbrdModhxfqhk1qCgU-34" vertex="1">
                    <mxGeometry y="56" width="160" height="30" as="geometry"/>
                </mxCell>
                <mxCell id="UgZbrdModhxfqhk1qCgU-37" value="password: string" style="text;strokeColor=none;fillColor=none;spacingLeft=4;spacingRight=4;overflow=hidden;rotatable=0;points=[[0,0.5],[1,0.5]];portConstraint=eastwest;fontSize=12;" parent="UgZbrdModhxfqhk1qCgU-34" vertex="1">
                    <mxGeometry y="86" width="160" height="30" as="geometry"/>
                </mxCell>
                <mxCell id="UgZbrdModhxfqhk1qCgU-38" value="last_name: string" style="text;strokeColor=none;fillColor=none;spacingLeft=4;spacingRight=4;overflow=hidden;rotatable=0;points=[[0,0.5],[1,0.5]];portConstraint=eastwest;fontSize=12;" parent="UgZbrdModhxfqhk1qCgU-34" vertex="1">
                    <mxGeometry y="116" width="160" height="30" as="geometry"/>
                </mxCell>
                <mxCell id="UgZbrdModhxfqhk1qCgU-39" value="first_name: string" style="text;strokeColor=none;fillColor=none;spacingLeft=4;spacingRight=4;overflow=hidden;rotatable=0;points=[[0,0.5],[1,0.5]];portConstraint=eastwest;fontSize=12;" parent="UgZbrdModhxfqhk1qCgU-34" vertex="1">
                    <mxGeometry y="146" width="160" height="30" as="geometry"/>
                </mxCell>
                <mxCell id="UgZbrdModhxfqhk1qCgU-40" value="last_name_kana: string" style="text;strokeColor=none;fillColor=none;spacingLeft=4;spacingRight=4;overflow=hidden;rotatable=0;points=[[0,0.5],[1,0.5]];portConstraint=eastwest;fontSize=12;" parent="UgZbrdModhxfqhk1qCgU-34" vertex="1">
                    <mxGeometry y="176" width="160" height="30" as="geometry"/>
                </mxCell>
                <mxCell id="UgZbrdModhxfqhk1qCgU-41" value="first_name_kana: string" style="text;strokeColor=none;fillColor=none;spacingLeft=4;spacingRight=4;overflow=hidden;rotatable=0;points=[[0,0.5],[1,0.5]];portConstraint=eastwest;fontSize=12;" parent="UgZbrdModhxfqhk1qCgU-34" vertex="1">
                    <mxGeometry y="206" width="160" height="30" as="geometry"/>
                </mxCell>
                <mxCell id="UgZbrdModhxfqhk1qCgU-44" value="birth_day: date" style="text;strokeColor=none;fillColor=none;spacingLeft=4;spacingRight=4;overflow=hidden;rotatable=0;points=[[0,0.5],[1,0.5]];portConstraint=eastwest;fontSize=12;" parent="UgZbrdModhxfqhk1qCgU-34" vertex="1">
                    <mxGeometry y="236" width="160" height="30" as="geometry"/>
                </mxCell>
                <mxCell id="o-njKKaawyF_dJCkBI_0-1" value="" style="edgeStyle=entityRelationEdgeStyle;fontSize=12;html=1;endArrow=ERoneToMany;entryX=-0.006;entryY=0.072;entryDx=0;entryDy=0;entryPerimeter=0;exitX=1;exitY=0.067;exitDx=0;exitDy=0;exitPerimeter=0;" parent="1" target="UgZbrdModhxfqhk1qCgU-24" edge="1">
                    <mxGeometry width="100" height="100" relative="1" as="geometry">
                        <mxPoint x="170" y="258.01" as="sourcePoint"/>
                        <mxPoint x="270" y="200" as="targetPoint"/>
                    </mxGeometry>
                </mxCell>
                <mxCell id="Ot_MBdFopp-VSySf_ivI-5" value="" style="edgeStyle=entityRelationEdgeStyle;fontSize=12;html=1;endArrow=ERmandOne;startArrow=ERmandOne;exitX=1;exitY=0.033;exitDx=0;exitDy=0;exitPerimeter=0;entryX=-0.006;entryY=0.8;entryDx=0;entryDy=0;entryPerimeter=0;" parent="1" target="UgZbrdModhxfqhk1qCgU-26" edge="1" source="o-njKKaawyF_dJCkBI_0-5">
                    <mxGeometry width="100" height="100" relative="1" as="geometry">
                        <mxPoint x="253.03999999999996" y="507.99" as="sourcePoint"/>
                        <mxPoint x="340" y="315" as="targetPoint"/>
                    </mxGeometry>
                </mxCell>
                <mxCell id="Ot_MBdFopp-VSySf_ivI-6" value="comments" style="swimlane;fontStyle=0;childLayout=stackLayout;horizontal=1;startSize=26;horizontalStack=0;resizeParent=1;resizeParentMax=0;resizeLast=0;collapsible=1;marginBottom=0;align=center;fontSize=14;" parent="1" vertex="1">
                    <mxGeometry x="240" y="20" width="160" height="116" as="geometry"/>
                </mxCell>
                <mxCell id="Ot_MBdFopp-VSySf_ivI-7" value="text: text" style="text;strokeColor=none;fillColor=none;spacingLeft=4;spacingRight=4;overflow=hidden;rotatable=0;points=[[0,0.5],[1,0.5]];portConstraint=eastwest;fontSize=12;" parent="Ot_MBdFopp-VSySf_ivI-6" vertex="1">
                    <mxGeometry y="26" width="160" height="30" as="geometry"/>
                </mxCell>
                <mxCell id="Ot_MBdFopp-VSySf_ivI-8" value="user: references" style="text;strokeColor=none;fillColor=none;spacingLeft=4;spacingRight=4;overflow=hidden;rotatable=0;points=[[0,0.5],[1,0.5]];portConstraint=eastwest;fontSize=12;" parent="Ot_MBdFopp-VSySf_ivI-6" vertex="1">
                    <mxGeometry y="56" width="160" height="30" as="geometry"/>
                </mxCell>
                <mxCell id="Ot_MBdFopp-VSySf_ivI-9" value="items: references" style="text;strokeColor=none;fillColor=none;spacingLeft=4;spacingRight=4;overflow=hidden;rotatable=0;points=[[0,0.5],[1,0.5]];portConstraint=eastwest;fontSize=12;" parent="Ot_MBdFopp-VSySf_ivI-6" vertex="1">
                    <mxGeometry y="86" width="160" height="30" as="geometry"/>
                </mxCell>
                <mxCell id="UgZbrdModhxfqhk1qCgU-24" value="items" style="swimlane;fontStyle=0;childLayout=stackLayout;horizontal=1;startSize=26;horizontalStack=0;resizeParent=1;resizeParentMax=0;resizeLast=0;collapsible=1;marginBottom=0;align=center;fontSize=14;" parent="1" vertex="1">
                    <mxGeometry x="320" y="170" width="160" height="326" as="geometry">
                        <mxRectangle x="370" y="170" width="70" height="26" as="alternateBounds"/>
                    </mxGeometry>
                </mxCell>
                <mxCell id="UgZbrdModhxfqhk1qCgU-25" value="(image: ActiveStrage)" style="text;strokeColor=none;fillColor=none;spacingLeft=4;spacingRight=4;overflow=hidden;rotatable=0;points=[[0,0.5],[1,0.5]];portConstraint=eastwest;fontSize=12;" parent="UgZbrdModhxfqhk1qCgU-24" vertex="1">
                    <mxGeometry y="26" width="160" height="30" as="geometry"/>
                </mxCell>
                <mxCell id="UgZbrdModhxfqhk1qCgU-26" value="name: string" style="text;strokeColor=none;fillColor=none;spacingLeft=4;spacingRight=4;overflow=hidden;rotatable=0;points=[[0,0.5],[1,0.5]];portConstraint=eastwest;fontSize=12;" parent="UgZbrdModhxfqhk1qCgU-24" vertex="1">
                    <mxGeometry y="56" width="160" height="30" as="geometry"/>
                </mxCell>
                <mxCell id="UgZbrdModhxfqhk1qCgU-27" value="description: text" style="text;strokeColor=none;fillColor=none;spacingLeft=4;spacingRight=4;overflow=hidden;rotatable=0;points=[[0,0.5],[1,0.5]];portConstraint=eastwest;fontSize=12;" parent="UgZbrdModhxfqhk1qCgU-24" vertex="1">
                    <mxGeometry y="86" width="160" height="30" as="geometry"/>
                </mxCell>
                <mxCell id="UgZbrdModhxfqhk1qCgU-30" value="category_id: integer" style="text;strokeColor=none;fillColor=none;spacingLeft=4;spacingRight=4;overflow=hidden;rotatable=0;points=[[0,0.5],[1,0.5]];portConstraint=eastwest;fontSize=12;" parent="UgZbrdModhxfqhk1qCgU-24" vertex="1">
                    <mxGeometry y="116" width="160" height="30" as="geometry"/>
                </mxCell>
                <mxCell id="7" value="condition_id: integer" style="text;strokeColor=none;fillColor=none;spacingLeft=4;spacingRight=4;overflow=hidden;rotatable=0;points=[[0,0.5],[1,0.5]];portConstraint=eastwest;fontSize=12;" parent="UgZbrdModhxfqhk1qCgU-24" vertex="1">
                    <mxGeometry y="146" width="160" height="30" as="geometry"/>
                </mxCell>
                <mxCell id="6" value="duration_id: integer" style="text;strokeColor=none;fillColor=none;spacingLeft=4;spacingRight=4;overflow=hidden;rotatable=0;points=[[0,0.5],[1,0.5]];portConstraint=eastwest;fontSize=12;" parent="UgZbrdModhxfqhk1qCgU-24" vertex="1">
                    <mxGeometry y="176" width="160" height="30" as="geometry"/>
                </mxCell>
                <mxCell id="UgZbrdModhxfqhk1qCgU-31" value="shipping_fee_id: integer" style="text;strokeColor=none;fillColor=none;spacingLeft=4;spacingRight=4;overflow=hidden;rotatable=0;points=[[0,0.5],[1,0.5]];portConstraint=eastwest;fontSize=12;" parent="UgZbrdModhxfqhk1qCgU-24" vertex="1">
                    <mxGeometry y="206" width="160" height="30" as="geometry"/>
                </mxCell>
                <mxCell id="UgZbrdModhxfqhk1qCgU-32" value="prefecture_id: integer" style="text;strokeColor=none;fillColor=none;spacingLeft=4;spacingRight=4;overflow=hidden;rotatable=0;points=[[0,0.5],[1,0.5]];portConstraint=eastwest;fontSize=12;" parent="UgZbrdModhxfqhk1qCgU-24" vertex="1">
                    <mxGeometry y="236" width="160" height="30" as="geometry"/>
                </mxCell>
                <mxCell id="Ot_MBdFopp-VSySf_ivI-1" value="user: references" style="text;strokeColor=none;fillColor=none;spacingLeft=4;spacingRight=4;overflow=hidden;rotatable=0;points=[[0,0.5],[1,0.5]];portConstraint=eastwest;fontSize=12;" parent="UgZbrdModhxfqhk1qCgU-24" vertex="1">
                    <mxGeometry y="266" width="160" height="30" as="geometry"/>
                </mxCell>
                <mxCell id="UgZbrdModhxfqhk1qCgU-33" value="price: integer" style="text;strokeColor=none;fillColor=none;spacingLeft=4;spacingRight=4;overflow=hidden;rotatable=0;points=[[0,0.5],[1,0.5]];portConstraint=eastwest;fontSize=12;" parent="UgZbrdModhxfqhk1qCgU-24" vertex="1">
                    <mxGeometry y="296" width="160" height="30" as="geometry"/>
                </mxCell>
                <mxCell id="Ot_MBdFopp-VSySf_ivI-10" value="" style="edgeStyle=entityRelationEdgeStyle;fontSize=12;html=1;endArrow=ERoneToMany;exitX=1;exitY=0.5;exitDx=0;exitDy=0;" parent="1" source="UgZbrdModhxfqhk1qCgU-41" target="Ot_MBdFopp-VSySf_ivI-6" edge="1">
                    <mxGeometry width="100" height="100" relative="1" as="geometry">
                        <mxPoint x="180" y="241" as="sourcePoint"/>
                        <mxPoint x="460" y="260" as="targetPoint"/>
                    </mxGeometry>
                </mxCell>
                <mxCell id="Ot_MBdFopp-VSySf_ivI-17" value="" style="edgeStyle=entityRelationEdgeStyle;fontSize=12;html=1;endArrow=ERmandOne;startArrow=ERmandOne;entryX=0;entryY=0.5;entryDx=0;entryDy=0;" parent="1" target="Ot_MBdFopp-VSySf_ivI-14" edge="1">
                    <mxGeometry width="100" height="100" relative="1" as="geometry">
                        <mxPoint x="250" y="528" as="sourcePoint"/>
                        <mxPoint x="350" y="453" as="targetPoint"/>
                    </mxGeometry>
                </mxCell>
                <mxCell id="Ot_MBdFopp-VSySf_ivI-3" value="" style="edgeStyle=entityRelationEdgeStyle;fontSize=12;html=1;endArrow=ERoneToMany;entryX=-0.006;entryY=0.033;entryDx=0;entryDy=0;entryPerimeter=0;exitX=1;exitY=0.733;exitDx=0;exitDy=0;exitPerimeter=0;" parent="1" source="UgZbrdModhxfqhk1qCgU-44" edge="1" target="o-njKKaawyF_dJCkBI_0-5">
                    <mxGeometry width="100" height="100" relative="1" as="geometry">
                        <mxPoint x="60" y="346" as="sourcePoint"/>
                        <mxPoint x="86.96000000000004" y="500.99" as="targetPoint"/>
                    </mxGeometry>
                </mxCell>
                <mxCell id="Ot_MBdFopp-VSySf_ivI-11" value="addresses" style="swimlane;fontStyle=0;childLayout=stackLayout;horizontal=1;startSize=26;horizontalStack=0;resizeParent=1;resizeParentMax=0;resizeLast=0;collapsible=1;marginBottom=0;align=center;fontSize=14;" parent="1" vertex="1">
                    <mxGeometry x="550" y="380" width="160" height="236" as="geometry"/>
                </mxCell>
                <mxCell id="Ot_MBdFopp-VSySf_ivI-12" value="postal_code: string" style="text;strokeColor=none;fillColor=none;spacingLeft=4;spacingRight=4;overflow=hidden;rotatable=0;points=[[0,0.5],[1,0.5]];portConstraint=eastwest;fontSize=12;" parent="Ot_MBdFopp-VSySf_ivI-11" vertex="1">
                    <mxGeometry y="26" width="160" height="30" as="geometry"/>
                </mxCell>
                <mxCell id="3" value="prefecture_id: integer" style="text;strokeColor=none;fillColor=none;spacingLeft=4;spacingRight=4;overflow=hidden;rotatable=0;points=[[0,0.5],[1,0.5]];portConstraint=eastwest;fontSize=12;" parent="Ot_MBdFopp-VSySf_ivI-11" vertex="1">
                    <mxGeometry y="56" width="160" height="30" as="geometry"/>
                </mxCell>
                <mxCell id="Ot_MBdFopp-VSySf_ivI-13" value="municipality: string" style="text;strokeColor=none;fillColor=none;spacingLeft=4;spacingRight=4;overflow=hidden;rotatable=0;points=[[0,0.5],[1,0.5]];portConstraint=eastwest;fontSize=12;" parent="Ot_MBdFopp-VSySf_ivI-11" vertex="1">
                    <mxGeometry y="86" width="160" height="30" as="geometry"/>
                </mxCell>
                <mxCell id="Ot_MBdFopp-VSySf_ivI-14" value="building_name: string" style="text;strokeColor=none;fillColor=none;spacingLeft=4;spacingRight=4;overflow=hidden;rotatable=0;points=[[0,0.5],[1,0.5]];portConstraint=eastwest;fontSize=12;" parent="Ot_MBdFopp-VSySf_ivI-11" vertex="1">
                    <mxGeometry y="116" width="160" height="30" as="geometry"/>
                </mxCell>
                <mxCell id="Ot_MBdFopp-VSySf_ivI-15" value="details: string" style="text;strokeColor=none;fillColor=none;spacingLeft=4;spacingRight=4;overflow=hidden;rotatable=0;points=[[0,0.5],[1,0.5]];portConstraint=eastwest;fontSize=12;" parent="Ot_MBdFopp-VSySf_ivI-11" vertex="1">
                    <mxGeometry y="146" width="160" height="30" as="geometry"/>
                </mxCell>
                <mxCell id="Ot_MBdFopp-VSySf_ivI-16" value="tel: string" style="text;strokeColor=none;fillColor=none;spacingLeft=4;spacingRight=4;overflow=hidden;rotatable=0;points=[[0,0.5],[1,0.5]];portConstraint=eastwest;fontSize=12;" parent="Ot_MBdFopp-VSySf_ivI-11" vertex="1">
                    <mxGeometry y="176" width="160" height="30" as="geometry"/>
                </mxCell>
                <mxCell id="5" value="purchase: references" style="text;strokeColor=none;fillColor=none;spacingLeft=4;spacingRight=4;overflow=hidden;rotatable=0;points=[[0,0.5],[1,0.5]];portConstraint=eastwest;fontSize=12;" parent="Ot_MBdFopp-VSySf_ivI-11" vertex="1">
                    <mxGeometry y="206" width="160" height="30" as="geometry"/>
                </mxCell>
                <mxCell id="o-njKKaawyF_dJCkBI_0-2" value="purchases" style="swimlane;fontStyle=0;childLayout=stackLayout;horizontal=1;startSize=26;horizontalStack=0;resizeParent=1;resizeParentMax=0;resizeLast=0;collapsible=1;marginBottom=0;align=center;fontSize=14;" parent="1" vertex="1">
                    <mxGeometry x="90" y="450" width="160" height="86" as="geometry"/>
                </mxCell>
                <mxCell id="o-njKKaawyF_dJCkBI_0-4" value="user: references" style="text;strokeColor=none;fillColor=none;spacingLeft=4;spacingRight=4;overflow=hidden;rotatable=0;points=[[0,0.5],[1,0.5]];portConstraint=eastwest;fontSize=12;" parent="o-njKKaawyF_dJCkBI_0-2" vertex="1">
                    <mxGeometry y="26" width="160" height="30" as="geometry"/>
                </mxCell>
                <mxCell id="o-njKKaawyF_dJCkBI_0-5" value="item: references" style="text;strokeColor=none;fillColor=none;spacingLeft=4;spacingRight=4;overflow=hidden;rotatable=0;points=[[0,0.5],[1,0.5]];portConstraint=eastwest;fontSize=12;" parent="o-njKKaawyF_dJCkBI_0-2" vertex="1">
                    <mxGeometry y="56" width="160" height="30" as="geometry"/>
                </mxCell>
            </root>
        </mxGraphModel>
    </diagram>
</mxfile>